<svg width="185" height="185" viewBox="0 0 185 185" fill="none" xmlns="http://www.w3.org/2000/svg">
<g clip-path="url(#clip0_82_25)">
<path d="M185 92.5C185 41.414 143.586 0 92.5 0C41.414 0 0 41.414 0 92.5C0 138.669 33.8261 176.937 78.0469 183.876V119.238H54.5605V92.5H78.0469V72.1211C78.0469 48.9383 91.8568 36.1328 112.986 36.1328C123.106 36.1328 133.691 37.9395 133.691 37.9395V60.7031H122.028C110.537 60.7031 106.953 67.8336 106.953 75.149V92.5H132.607L128.506 119.238H106.953V183.876C151.174 176.937 185 138.67 185 92.5Z" fill="#1877F2"/>
<path d="M128.506 119.238L132.607 92.5H106.953V75.149C106.953 67.8329 110.537 60.7031 122.028 60.7031H133.691V37.9395C133.691 37.9395 123.106 36.1328 112.985 36.1328C91.8568 36.1328 78.0469 48.9383 78.0469 72.1211V92.5H54.5605V119.238H78.0469V183.876C82.8281 184.625 87.6604 185.001 92.5 185C97.3396 185.001 102.172 184.625 106.953 183.876V119.238H128.506Z" fill="white"/>
</g>
<defs>
<clipPath id="clip0_82_25">
<rect width="185" height="185" fill="white"/>
</clipPath>
</defs>
</svg>
