<svg width="245" height="185" viewBox="0 0 245 185" fill="none" xmlns="http://www.w3.org/2000/svg">
<g clip-path="url(#clip0_82_2)">
<path d="M55.682 184.089V89.2793L26.3251 62.3795L0 47.452V167.358C0 176.616 7.48877 184.089 16.705 184.089H55.682Z" fill="#4285F4"/>
<path d="M189.318 184.089H228.295C237.539 184.089 245 176.588 245 167.358V47.453L215.183 64.5506L189.318 89.2793V184.089Z" fill="#34A853"/>
<path d="M55.6819 89.2793L51.6873 52.2342L55.6819 16.7784L122.5 66.9719L189.318 16.7784L193.786 50.32L189.318 89.2793L122.5 139.473L55.6819 89.2793Z" fill="#EA4335"/>
<path d="M189.318 16.7784V89.2793L245 47.452V25.1437C245 4.45342 221.419 -7.34154 204.91 5.06688L189.318 16.7784Z" fill="#FBBC04"/>
<path d="M0 47.4522L25.6092 66.6902L55.682 89.2794V16.7786L40.09 5.06703C23.5525 -7.34234 0 4.45356 0 25.1429V47.4522Z" fill="#C5221F"/>
</g>
<defs>
<clipPath id="clip0_82_2">
<rect width="245" height="185" fill="white"/>
</clipPath>
</defs>
</svg>
