<svg width="185" height="185" viewBox="0 0 185 185" fill="none" xmlns="http://www.w3.org/2000/svg">
<g clip-path="url(#clip0_82_20)">
<path d="M141.641 0H43.3594C19.4127 0 0 19.4127 0 43.3594V141.641C0 165.587 19.4127 185 43.3594 185H141.641C165.587 185 185 165.587 185 141.641V43.3594C185 19.4127 165.587 0 141.641 0Z" fill="url(#paint0_radial_82_20)"/>
<path d="M141.641 0H43.3594C19.4127 0 0 19.4127 0 43.3594V141.641C0 165.587 19.4127 185 43.3594 185H141.641C165.587 185 185 165.587 185 141.641V43.3594C185 19.4127 165.587 0 141.641 0Z" fill="url(#paint1_radial_82_20)"/>
<path d="M92.5065 20.2344C72.8806 20.2344 70.4171 20.3204 62.7092 20.6709C55.0158 21.0235 49.7643 22.2412 45.1696 24.0283C40.416 25.874 36.3843 28.3433 32.3678 32.3613C28.3476 36.3785 25.8783 40.4102 24.0269 45.1617C22.2347 49.7578 21.0156 55.0115 20.6694 62.7013C20.3247 70.4098 20.2344 72.8741 20.2344 92.5007C20.2344 112.127 20.3211 114.583 20.6709 122.291C21.025 129.984 22.2426 135.236 24.0283 139.83C25.8754 144.584 28.3447 148.616 32.3627 152.632C36.3785 156.652 40.4102 159.127 45.1602 160.973C49.7585 162.76 55.0108 163.978 62.7027 164.331C70.4113 164.681 72.8727 164.767 92.4978 164.767C112.126 164.767 114.581 164.681 122.289 164.331C129.983 163.978 135.24 162.76 139.838 160.973C144.59 159.127 148.616 156.652 152.631 152.632C156.651 148.616 159.12 144.584 160.972 139.833C162.748 135.236 163.968 129.983 164.329 122.292C164.675 114.584 164.766 112.127 164.766 92.5007C164.766 72.8741 164.675 70.4113 164.329 62.7027C163.968 55.0093 162.748 49.7585 160.972 45.1638C159.12 40.4102 156.651 36.3785 152.631 32.3613C148.611 28.3419 144.591 25.8725 139.834 24.029C135.227 22.2412 129.973 21.0228 122.279 20.6709C114.571 20.3204 112.117 20.2344 92.4841 20.2344H92.5065ZM86.0236 33.2574C87.948 33.2545 90.095 33.2574 92.5065 33.2574C111.802 33.2574 114.089 33.3267 121.708 33.6729C128.754 33.9952 132.579 35.1724 135.126 36.1617C138.499 37.4712 140.903 39.0372 143.431 41.5672C145.96 44.0965 147.525 46.5051 148.838 49.8777C149.828 52.4215 151.006 56.2458 151.327 63.2917C151.673 70.9099 151.748 73.1978 151.748 92.4841C151.748 111.77 151.673 114.059 151.327 121.677C151.005 128.722 149.828 132.547 148.838 135.091C147.529 138.464 145.96 140.865 143.431 143.393C140.901 145.922 138.5 147.488 135.126 148.798C132.581 149.791 128.754 150.966 121.708 151.288C114.09 151.634 111.802 151.709 92.5065 151.709C73.2101 151.709 70.9229 151.634 63.3054 151.288C56.2595 150.963 52.4352 149.786 49.8857 148.796C46.5138 147.486 44.1044 145.921 41.5751 143.392C39.0458 140.862 37.4806 138.459 36.1675 135.085C35.1782 132.541 33.9995 128.717 33.6787 121.671C33.3325 114.052 33.2631 111.765 33.2631 92.466C33.2631 73.1675 33.3325 70.8919 33.6787 63.2736C34.001 56.2277 35.1782 52.4034 36.1675 49.8561C37.4777 46.4834 39.0458 44.0748 41.5759 41.5455C44.1059 39.0162 46.5138 37.4502 49.8864 36.1379C52.4338 35.1442 56.2595 33.9699 63.3054 33.6462C69.9719 33.3448 72.5554 33.2545 86.0236 33.2393V33.2574ZM131.082 45.2563C126.294 45.2563 122.41 49.137 122.41 53.9253C122.41 58.7129 126.294 62.5972 131.082 62.5972C135.869 62.5972 139.754 58.7129 139.754 53.9253C139.754 49.1377 135.869 45.2535 131.082 45.2535V45.2563ZM92.5065 55.3887C72.012 55.3887 55.3952 72.0055 55.3952 92.5007C55.3952 112.996 72.012 129.605 92.5065 129.605C113.002 129.605 129.613 112.996 129.613 92.5007C129.613 72.0062 113 55.3887 92.5051 55.3887H92.5065ZM92.5065 68.4117C105.81 68.4117 116.596 79.1959 116.596 92.5007C116.596 105.804 105.81 116.59 92.5065 116.59C79.2031 116.59 68.4182 105.804 68.4182 92.5007C68.4182 79.1959 79.2024 68.4117 92.5065 68.4117Z" fill="white"/>
</g>
<defs>
<radialGradient id="paint0_radial_82_20" cx="0" cy="0" r="1" gradientUnits="userSpaceOnUse" gradientTransform="translate(49.1406 199.249) rotate(-90) scale(183.349 170.529)">
<stop stop-color="#FFDD55"/>
<stop offset="0.1" stop-color="#FFDD55"/>
<stop offset="0.5" stop-color="#FF543E"/>
<stop offset="1" stop-color="#C837AB"/>
</radialGradient>
<radialGradient id="paint1_radial_82_20" cx="0" cy="0" r="1" gradientUnits="userSpaceOnUse" gradientTransform="translate(-30.9882 13.3265) rotate(78.681) scale(81.9579 337.833)">
<stop stop-color="#3771C8"/>
<stop offset="0.128" stop-color="#3771C8"/>
<stop offset="1" stop-color="#6600FF" stop-opacity="0"/>
</radialGradient>
<clipPath id="clip0_82_20">
<rect width="185" height="185" fill="white"/>
</clipPath>
</defs>
</svg>
