<svg width="163" height="185" viewBox="0 0 163 185" fill="none" xmlns="http://www.w3.org/2000/svg">
<g clip-path="url(#clip0_82_28)">
<path d="M120.798 66.6134C132.691 75.1266 147.26 80.1356 162.995 80.1356V49.8148C160.017 49.8159 157.047 49.5046 154.134 48.8859V72.7528C138.4 72.7528 123.832 67.7444 111.937 59.2319V121.109C111.937 152.063 86.8783 177.154 55.9694 177.154C44.4366 177.154 33.7168 173.663 24.8123 167.674C34.9756 178.081 49.1489 184.536 64.8288 184.536C95.7402 184.536 120.8 159.445 120.8 128.49V66.6134H120.798ZM131.731 36.0233C125.653 29.3742 121.662 20.7812 120.798 11.2812V7.3815H112.401C114.514 19.4556 121.725 29.771 131.731 36.0233ZM44.3621 143.922C40.966 139.464 39.1304 134.009 39.1391 128.401C39.1391 114.244 50.6006 102.765 64.7415 102.765C67.3764 102.763 69.9958 103.169 72.5076 103.966V72.9672C69.5723 72.5647 66.6103 72.3931 63.6495 72.4562V96.584C61.1365 95.7863 58.5158 95.3814 55.8797 95.3835C41.7394 95.3835 30.2785 106.861 30.2785 121.02C30.2785 131.032 36.007 139.699 44.3621 143.922Z" fill="#FF004F"/>
<path d="M111.937 59.2313C123.833 67.7438 138.399 72.7522 154.134 72.7522V48.8853C145.351 47.0117 137.576 42.416 131.73 36.0233C121.724 29.7703 114.515 19.455 112.401 7.3815H90.3429V128.488C90.2926 142.607 78.8507 154.039 64.7404 154.039C56.4261 154.039 49.0389 150.07 44.3609 143.921C36.0072 139.699 30.278 131.031 30.278 121.021C30.278 106.863 41.7389 95.3841 55.8792 95.3841C58.5884 95.3841 61.1996 95.8064 63.6491 96.5847V72.4568C33.2827 73.0852 8.86133 97.9313 8.86133 128.489C8.86133 143.743 14.9426 157.571 24.813 167.676C33.7176 173.663 44.4367 177.155 55.9702 177.155C86.8797 177.155 111.938 152.062 111.938 121.109L111.937 59.2313Z" fill="black"/>
<path d="M154.134 48.8847V42.4326C146.214 42.4441 138.45 40.2231 131.73 36.0233C137.678 42.5443 145.511 47.0412 154.134 48.8859M112.4 7.38086C112.199 6.22721 112.044 5.06586 111.936 3.89967V0H81.4796V121.108C81.4312 135.225 69.9894 146.657 55.8784 146.657C51.8781 146.663 47.9324 145.726 44.3602 143.922C49.0382 150.07 56.4254 154.038 64.7397 154.038C78.8493 154.038 90.2924 142.608 90.3421 128.489V7.3815L112.4 7.38086ZM63.6502 72.4562V65.5863C61.1052 65.2382 58.5394 65.0639 55.9708 65.0645C25.0581 65.0645 0 90.1569 0 121.108C0 140.513 9.84813 157.615 24.8136 167.674C14.9432 157.571 8.86185 143.742 8.86185 128.488C8.86185 97.9313 33.2826 73.0846 63.6502 72.4562Z" fill="#00F2EA"/>
</g>
<defs>
<clipPath id="clip0_82_28">
<rect width="163" height="185" fill="white"/>
</clipPath>
</defs>
</svg>
