<svg width="183" height="185" viewBox="0 0 183 185" fill="none" xmlns="http://www.w3.org/2000/svg">
<g clip-path="url(#clip0_82_16)">
<path d="M3.90523 91.3929C3.90095 106.936 7.94982 122.114 15.6487 135.491L3.16895 181.197L49.7996 168.933C62.6971 175.976 77.1477 179.666 91.8324 179.667H91.871C140.348 179.667 179.81 140.098 179.83 91.4624C179.84 67.895 170.698 45.7337 154.09 29.0608C137.484 12.3893 115.399 3.20308 91.8675 3.19232C43.3846 3.19232 3.92596 42.7594 3.90595 91.3929" fill="url(#paint0_linear_82_16)"/>
<path d="M0.764883 91.3642C0.759879 107.467 4.95387 123.187 12.9272 137.043L0 184.388L48.3027 171.684C61.6117 178.963 76.5962 182.801 91.8438 182.807H91.8832C142.099 182.807 182.979 141.814 183 91.4373C183.009 67.0231 173.538 44.0651 156.336 26.7949C139.132 9.52678 116.257 0.0100388 91.8832 0C41.6582 0 0.784898 40.9868 0.764883 91.3642ZM29.5309 134.657L27.7274 131.785C20.1457 119.693 16.144 105.719 16.1497 91.3699C16.1655 49.4975 50.1377 15.431 91.9118 15.431C112.142 15.4396 131.154 23.3502 145.454 37.7027C159.753 52.0567 167.621 71.1375 167.616 91.4316C167.597 133.304 133.624 167.375 91.8832 167.375H91.8531C78.2618 167.368 64.9321 163.706 53.3073 156.787L50.5409 155.142L21.8771 162.68L29.5309 134.657Z" fill="url(#paint1_linear_82_16)"/>
<path d="M69.1096 53.1681C67.404 49.3656 65.609 49.2889 63.987 49.2222C62.6589 49.1648 61.1405 49.1691 59.6236 49.1691C58.1053 49.1691 55.6384 49.7421 53.5532 52.0259C51.4658 54.3118 45.5841 59.836 45.5841 71.0715C45.5841 82.3071 53.7426 93.1661 54.8799 94.6913C56.0187 96.2136 70.6301 120.008 93.771 129.162C113.003 136.769 116.917 135.257 121.091 134.875C125.266 134.495 134.561 129.352 136.458 124.02C138.356 118.688 138.356 114.117 137.787 113.162C137.218 112.21 135.699 111.639 133.423 110.497C131.146 109.356 119.952 103.83 117.866 103.068C115.778 102.306 114.261 101.926 112.742 104.213C111.224 106.496 106.864 111.639 105.535 113.162C104.208 114.689 102.879 114.879 100.603 113.736C98.3246 112.59 90.9924 110.182 82.2935 102.403C75.5253 96.3491 70.9561 88.8739 69.6279 86.5872C68.2997 84.3041 69.4856 83.0664 70.6272 81.9285C71.6502 80.9052 72.9047 79.2617 74.0442 77.9287C75.1794 76.595 75.5582 75.6435 76.3174 74.1205C77.0773 72.596 76.697 71.2623 76.1287 70.12C75.5582 68.9778 71.1341 57.6834 69.1096 53.1681Z" fill="white"/>
</g>
<defs>
<linearGradient id="paint0_linear_82_16" x1="8836.24" y1="17803.7" x2="8836.24" y2="3.19232" gradientUnits="userSpaceOnUse">
<stop stop-color="#1FAF38"/>
<stop offset="1" stop-color="#60D669"/>
</linearGradient>
<linearGradient id="paint1_linear_82_16" x1="9150" y1="18438.8" x2="9150" y2="0" gradientUnits="userSpaceOnUse">
<stop stop-color="#F9F9F9"/>
<stop offset="1" stop-color="white"/>
</linearGradient>
<clipPath id="clip0_82_16">
<rect width="183" height="185" fill="white"/>
</clipPath>
</defs>
</svg>
