<svg width="263" height="185" viewBox="0 0 263 185" fill="none" xmlns="http://www.w3.org/2000/svg">
<g clip-path="url(#clip0_83_2)">
<path d="M257.192 28.8549C255.683 23.2777 252.74 18.1931 248.657 14.1076C244.573 10.022 239.491 7.07791 233.916 5.5685C213.507 0 131.367 0 131.367 0C131.367 0 49.2223 0.168555 28.8131 5.73706C23.2382 7.24655 18.1559 10.1908 14.0722 14.2766C9.98849 18.3623 7.04595 23.4471 5.53758 29.0244C-0.635728 65.3029 -3.03047 120.583 5.70709 155.41C7.21562 160.987 10.1582 166.072 14.2419 170.158C18.3256 174.243 23.4078 177.187 28.9826 178.697C49.3918 184.265 131.534 184.265 131.534 184.265C131.534 184.265 213.675 184.265 234.084 178.697C239.659 177.187 244.741 174.243 248.825 170.158C252.909 166.072 255.851 160.988 257.36 155.41C263.871 119.08 265.878 63.8343 257.192 28.8549Z" fill="#FF0000"/>
<path d="M105.222 131.617L173.363 92.1321L105.222 52.6469V131.617Z" fill="white"/>
</g>
<defs>
<clipPath id="clip0_83_2">
<rect width="263" height="185" fill="white"/>
</clipPath>
</defs>
</svg>
